<svg xmlns="http://www.w3.org/2000/svg" width="162.332" height="139.132" viewBox="0 0 162.332 139.132"><defs><style>.a{fill:#ef9c4b;}</style></defs><path class="a" d="M107.607,201.068a44.938,44.938,0,0,1-43.969,0C46.429,206.278,35.883,223.53,32,238.73H139.243C135.361,223.53,124.817,206.273,107.607,201.068ZM85.621,120.035a38.313,38.313,0,1,0,38.636,38.311A38.475,38.475,0,0,0,85.621,120.035Zm0,67.493c-12.286,0-22.785-8.148-27-18.285h54C108.4,179.38,97.906,187.528,85.621,187.528Z" transform="translate(-32 -99.598)"/><g transform="translate(76.147)"><path class="a" d="M272.552,180.777h57.432c-3.882-15.325-14.426-29.807-31.636-35.055a44.649,44.649,0,0,1-37.373,3.059,51.2,51.2,0,0,1-10.207,12.736C260.381,165.217,267.642,173.48,272.552,180.777Zm-5.859-67.138h36.668c-4.216,10.217-14.715,18.351-27,18.351a27.745,27.745,0,0,1-9.259-1.646,46.852,46.852,0,0,1-2.379,9.165A38.647,38.647,0,1,0,243.8,81.937,47.738,47.738,0,0,1,266.693,113.639Z" transform="translate(-243.798 -64.025)"/></g></svg>