<svg xmlns="http://www.w3.org/2000/svg" xmlns:xlink="http://www.w3.org/1999/xlink" width="58.248" height="54.247" viewBox="0 0 58.248 54.247"><defs><style>.a{fill:#ef9c4b;}.b{filter:url(#a);}</style><filter id="a" x="0" y="0" width="58.248" height="54.247" filterUnits="userSpaceOnUse"><feOffset dy="1" input="SourceAlpha"/><feGaussianBlur stdDeviation="1" result="b"/><feFlood flood-opacity="0.161"/><feComposite operator="in" in2="b"/><feComposite in="SourceGraphic"/></filter></defs><g class="b" transform="matrix(1, 0, 0, 1, 0, 0)"><path class="a" d="M48,66.826a3.078,3.078,0,0,0,.7,1.972L67.819,91.38a3.078,3.078,0,0,1,.7,1.972v13.439a2.909,2.909,0,0,0,1.834,2.763l6.908,2.487a1.9,1.9,0,0,0,2.462-1.922V93.34a3.078,3.078,0,0,1,.7-1.972L99.545,68.786a3.078,3.078,0,0,0,.7-1.972A2.81,2.81,0,0,0,97.56,63.9H50.688A2.83,2.83,0,0,0,48,66.826Z" transform="translate(-45 -61.9)"/></g></svg>