<svg xmlns="http://www.w3.org/2000/svg" xmlns:xlink="http://www.w3.org/1999/xlink" width="130.03" height="130" viewBox="0 0 130.03 130"><defs><style>.a{fill:#1b7c86;}.b{filter:url(#a);}</style><filter id="a" x="0" y="0" width="130.03" height="130" filterUnits="userSpaceOnUse"><feOffset dy="1" input="SourceAlpha"/><feGaussianBlur stdDeviation="1" result="b"/><feFlood flood-opacity="0.161"/><feComposite operator="in" in2="b"/><feComposite in="SourceGraphic"/></filter></defs><g class="b" transform="matrix(1, 0, 0, 1, 0, 0)"><path class="a" d="M167.589,95.692h-7.81V86.154l-4.292-14.308h-7.631V62.308L143.385,48H76.615L72.144,62.308v9.538H64.513L60.221,86.154v9.538h-7.81L48,110v49.272c0,7,10.492,12.728,17.5,12.728h93.8c6.5,0,12.728-5.872,12.728-12.221V110ZM86.154,62.308h47.692v9.538H86.154ZM73.933,86.154h72.135v9.538H73.933Zm84.058,33.385H133.369a23.852,23.852,0,0,1-46.738,0H62.01V110H157.99Z" transform="translate(-45 -46)"/></g></svg>