<svg xmlns="http://www.w3.org/2000/svg" width="125.857" height="125.855" viewBox="0 0 125.857 125.855"><defs><style>.a{fill:#ef9c4b;}</style></defs><path class="a" d="M158.717,117.221a39.358,39.358,0,0,0,.321-6.293c0-2.2-.321-4.09-.321-6.293L172.23,94.253a2.89,2.89,0,0,0,.644-4.09L160,68.452a3.134,3.134,0,0,0-3.862-1.26l-16.091,6.293a46.84,46.84,0,0,0-10.94-6.293l-2.253-16.675A3.449,3.449,0,0,0,123.637,48H97.892a3.449,3.449,0,0,0-3.218,2.517L92.1,67.192a54.5,54.5,0,0,0-10.943,6.293L65.066,67.192a3.014,3.014,0,0,0-3.862,1.26L48.331,90.164a3.8,3.8,0,0,0,.644,4.09l13.838,10.382c0,2.2-.321,4.09-.321,6.293s.321,4.09.321,6.293L49.3,127.6a2.89,2.89,0,0,0-.644,4.09L61.528,153.4a3.134,3.134,0,0,0,3.862,1.26l16.091-6.293a46.831,46.831,0,0,0,10.94,6.293L95,171.339a3.119,3.119,0,0,0,3.218,2.516h25.745a3.449,3.449,0,0,0,3.218-2.516l2.577-16.675a54.466,54.466,0,0,0,10.94-6.293l16.091,6.293a3.015,3.015,0,0,0,3.862-1.26l12.873-21.712a3.794,3.794,0,0,0-.644-4.09Zm-47.952,15.732c-12.552,0-22.527-9.752-22.527-22.025S98.213,88.9,110.765,88.9s22.527,9.752,22.527,22.025S123.317,132.953,110.765,132.953Z" transform="translate(-47.998 -48.001)"/></svg>