<svg xmlns="http://www.w3.org/2000/svg" xmlns:xlink="http://www.w3.org/1999/xlink" width="90.419" height="90.399" viewBox="0 0 90.419 90.399"><defs><style>.a{fill:#1b7c86;}.b{filter:url(#a);}</style><filter id="a" x="0" y="0" width="90.419" height="90.399" filterUnits="userSpaceOnUse"><feOffset dy="1" input="SourceAlpha"/><feGaussianBlur stdDeviation="1" result="b"/><feFlood flood-opacity="0.161"/><feComposite operator="in" in2="b"/><feComposite in="SourceGraphic"/></filter></defs><g transform="translate(3 2)"><g class="b" transform="matrix(1, 0, 0, 1, -3, -2)"><path class="a" d="M129.4,80.461h-5.316V73.969l-2.921-9.738h-5.194V57.738L112.922,48H67.477l-3.043,9.738v6.492H59.24l-2.922,9.738v6.492H51L48,90.2v33.536c0,4.768,7.141,8.663,11.909,8.663h63.847c4.423,0,8.663-4,8.663-8.318V90.2ZM73.969,57.738H106.43v6.492H73.969ZM65.651,73.969h49.1v6.492h-49.1Zm57.213,22.723H106.106a16.235,16.235,0,0,1-31.812,0H57.535V90.2h65.328Z" transform="translate(-45 -46)"/></g></g></svg>