<svg xmlns="http://www.w3.org/2000/svg" width="83.725" height="83.519" viewBox="0 0 83.725 83.519"><defs><style>.a{fill:#228a95;}</style></defs><g transform="translate(0)"><ellipse class="a" cx="7.787" cy="7.786" rx="7.787" ry="7.786" transform="translate(34.076)"/><path class="a" d="M173.254,88.32l-.11,0h-5.814a10.8,10.8,0,0,0-10.592,11c0,.037,0,.074,0,.11v1.661c0,.831.311,1.765,1.246,1.765h24.5c.934,0,1.246-.934,1.246-1.765V99.425A10.8,10.8,0,0,0,173.254,88.32Z" transform="translate(-128.374 -72.176)"/><path class="a" d="M48.6,142.092a1.557,1.557,0,0,0,1.557-1.557A32.08,32.08,0,0,1,62.2,115.411a1.454,1.454,0,0,0,.208-2.18,1.557,1.557,0,0,0-2.18-.208,35.3,35.3,0,0,0-13.185,27.512A1.557,1.557,0,0,0,48.6,142.092Z" transform="translate(-37.695 -92.466)"/><path class="a" d="M185.764,406.181h0a32.807,32.807,0,0,1-20.453,0,1.558,1.558,0,0,0-1.961,1l-.011.036a1.661,1.661,0,0,0,1.038,1.973,36.033,36.033,0,0,0,11.109,1.765,34.988,34.988,0,0,0,11.316-1.869,1.557,1.557,0,0,0-1.038-2.907Z" transform="translate(-133.622 -331.071)"/><path class="a" d="M315.385,109.265l.02.014a32.287,32.287,0,0,1,13.6,26.266,1.557,1.557,0,0,0,3.115,0,35.5,35.5,0,0,0-14.95-28.861,1.661,1.661,0,0,0-2.18.415A1.557,1.557,0,0,0,315.385,109.265Z" transform="translate(-257.744 -87.402)"/><ellipse class="a" cx="7.787" cy="7.786" rx="7.787" ry="7.786" transform="translate(5.715 52.783)"/><path class="a" d="M16.519,375.667l-.11,0H10.594A10.8,10.8,0,0,0,0,386.662c0,.037,0,.074,0,.11v1.661c0,.831.311,1.765,1.246,1.765h24.5c.934,0,1.246-.934,1.246-1.765v-1.661A10.8,10.8,0,0,0,16.519,375.667Z" transform="translate(0 -306.679)"/><ellipse class="a" cx="7.787" cy="7.786" rx="7.787" ry="7.786" transform="translate(62.437 52.783)"/><path class="a" d="M329.988,375.667l-.11,0h-5.814a10.8,10.8,0,0,0-10.592,11c0,.037,0,.074,0,.11v1.661c0,.831.311,1.765,1.246,1.765h24.5c.934,0,1.246-.934,1.246-1.765v-1.661A10.8,10.8,0,0,0,329.988,375.667Z" transform="translate(-256.747 -306.679)"/></g></svg>