<svg xmlns="http://www.w3.org/2000/svg" width="121.689" height="121.39" viewBox="0 0 121.689 121.39"><defs><style>.a{fill:#ef9c4b;}</style></defs><g transform="translate(0 0)"><g transform="translate(0)"><ellipse class="a" cx="11.317" cy="11.317" rx="11.317" ry="11.317" transform="translate(49.527)"/><path class="a" d="M180.744,88.321l-.16,0h-8.45a15.693,15.693,0,0,0-15.4,15.985c0,.053,0,.107,0,.16v2.414c0,1.207.453,2.565,1.811,2.565h35.612c1.358,0,1.811-1.358,1.811-2.565v-2.414A15.693,15.693,0,0,0,180.744,88.321Z" transform="translate(-115.514 -64.857)"/><path class="a" d="M49.307,155.432a2.264,2.264,0,0,0,2.264-2.263,46.626,46.626,0,0,1,17.5-36.516,2.113,2.113,0,0,0,.3-3.169,2.264,2.264,0,0,0-3.169-.3,51.3,51.3,0,0,0-19.164,39.987A2.263,2.263,0,0,0,49.307,155.432Z" transform="translate(-33.456 -83.304)"/><path class="a" d="M195.956,406.215h0a47.683,47.683,0,0,1-29.727,0,2.264,2.264,0,0,0-2.851,1.456l-.017.053a2.414,2.414,0,0,0,1.509,2.867,52.368,52.368,0,0,0,16.146,2.565,50.856,50.856,0,0,0,16.448-2.716,2.263,2.263,0,0,0-1.509-4.225Z" transform="translate(-120.17 -297.048)"/><path class="a" d="M315.69,110.544l.029.02a46.927,46.927,0,0,1,19.768,38.176,2.264,2.264,0,0,0,4.527,0,51.6,51.6,0,0,0-21.729-41.948,2.414,2.414,0,0,0-3.169.6A2.263,2.263,0,0,0,315.69,110.544Z" transform="translate(-231.912 -78.767)"/><ellipse class="a" cx="11.317" cy="11.317" rx="11.317" ry="11.317" transform="translate(8.306 76.717)"/><path class="a" d="M24.009,375.668l-.16,0H15.4A15.693,15.693,0,0,0,0,391.649c0,.053,0,.107,0,.16v2.414c0,1.207.453,2.565,1.811,2.565H37.429c1.358,0,1.811-1.358,1.811-2.565v-2.414A15.693,15.693,0,0,0,24.009,375.668Z" transform="translate(0 -275.399)"/><ellipse class="a" cx="11.317" cy="11.317" rx="11.317" ry="11.317" transform="translate(90.749 76.717)"/><path class="a" d="M337.478,375.668l-.16,0h-8.45a15.693,15.693,0,0,0-15.4,15.985c0,.053,0,.107,0,.16v2.414c0,1.207.453,2.565,1.811,2.565H350.9c1.358,0,1.811-1.358,1.811-2.565v-2.414A15.693,15.693,0,0,0,337.478,375.668Z" transform="translate(-231.027 -275.399)"/></g></g></svg>