<svg xmlns="http://www.w3.org/2000/svg" width="119.844" height="29.937" viewBox="0 0 119.844 29.937"><defs><style>.a{fill:#fff;}</style></defs><g transform="translate(-215.619 -254.058)"><path class="a" d="M328.341,278.9a9.279,9.279,0,0,1,.387,2.963c.019,4.844.01,9.687.008,14.531,0,.636-.009.642-.671.643q-2.69,0-5.38,0c-.545,0-.566-.016-.566-.538,0-4.634-.039-9.269.013-13.9a8.3,8.3,0,0,0-3.891-7.5,7.445,7.445,0,0,0-4.29-1.253c-1.443.02-2.886-.015-4.329-.026a15,15,0,0,1,8.549-1.044,14.735,14.735,0,0,1,8.244,4.108C327.078,277.533,327.7,278.226,328.341,278.9Z" transform="translate(-66.615 -13.116)"/><path class="a" d="M256.477,285.112c.364.076.726.156,1.091.227.7.136.7.134.7.865q0,2.583-.007,5.167c0,.659-.008.679-.647.611a14.747,14.747,0,0,1-10.661-6.045,14.21,14.21,0,0,1-2.853-7.678,14.721,14.721,0,0,1,5.169-12.547c.162-.146.293-.375.57-.344a1.4,1.4,0,0,1-.353.67,12.41,12.41,0,0,0,3.863,17.79,5.388,5.388,0,0,0,2.288.983l-.046-.011a.657.657,0,0,0,.443.17l-.023-.006A.782.782,0,0,0,256.477,285.112Z" transform="translate(-20.153 -8.013)"/><path class="a" d="M263.37,276.9a5.388,5.388,0,0,1-2.288-.983,12.41,12.41,0,0,1-3.863-17.79,1.4,1.4,0,0,0,.353-.67.136.136,0,0,1,0,.027c.055-.058.112-.115.169-.172l-.023.035.166-.173-.02.036.153-.16a13.325,13.325,0,0,1,4.792-2.34,16.918,16.918,0,0,1,2.745-.5c.33-.038.47.052.469.4-.008,1.933-.013,3.866,0,5.8,0,.405-.223.424-.52.471a8.39,8.39,0,0,0-2.67,15.709A1.643,1.643,0,0,1,263.37,276.9Z" transform="translate(-27.886 -0.102)"/><path class="a" d="M223.942,275.122c.009.232.026.464.026.7q0,11.108,0,22.215c0,.14-.012.281,0,.419.032.323-.083.456-.429.451-1.583-.022-3.165-.024-4.748-.033a9.784,9.784,0,0,0-.1-1.042,24.394,24.394,0,0,1-.343-4.03c.033-1.279-.017-2.556.126-3.836a34.646,34.646,0,0,1,.862-4.876,30.2,30.2,0,0,1,2.176-5.887A25.969,25.969,0,0,1,223.942,275.122Z" transform="translate(-1.936 -14.927)"/><path class="a" d="M222.006,260.2a25.966,25.966,0,0,0-2.423,4.078,30.2,30.2,0,0,0-2.176,5.887,34.656,34.656,0,0,0-.862,4.876c-.142,1.28-.092,2.558-.126,3.836a24.394,24.394,0,0,0,.343,4.03,9.779,9.779,0,0,1,.1,1.042c-1.238.079-1.238.079-1.238-1.155q0-13.909,0-27.818c0-.995-.084-.906.9-.908,1.678,0,3.355.007,5.032-.006.356,0,.493.11.489.478C222.018,256.422,222.015,258.309,222.006,260.2Z" transform="translate(0 0)"/><path class="a" d="M324.529,266.146c-.64-.674-1.262-1.368-1.925-2.02a14.735,14.735,0,0,0-8.244-4.108,15,15,0,0,0-8.549,1.044,8.584,8.584,0,0,1-1.567,0,11.017,11.017,0,0,1,2.032-2.722,16.611,16.611,0,0,1,5.384-3.772,14.251,14.251,0,0,1,7.469,3.025,14.764,14.764,0,0,1,5.341,8.142A3.557,3.557,0,0,1,324.529,266.146Z" transform="translate(-62.803 -0.361)"/><path class="a" d="M308.043,254.217a16.61,16.61,0,0,0-5.384,3.772,11.017,11.017,0,0,0-2.032,2.722c-1.487.114-1.487.114-1.487-1.324,0-1.559,0-3.118,0-4.677,0-.624.009-.633.608-.635q3.63-.006,7.26,0A4.194,4.194,0,0,1,308.043,254.217Z" transform="translate(-59.185 -0.011)"/><path class="a" d="M408.289,299.914q.378-.56.756-1.121a4.448,4.448,0,0,0,.34-.527.82.82,0,0,1,1.141-.454c.111.2-.051.313-.131.439-.325.51-.641,1.028-1,1.512a.573.573,0,0,0,.019.8c.376.5.721,1.029,1.069,1.551.112.168.281.314.288.541-.815.186-.817.185-1.259-.44l-1.2-1.693c-.252.109-.169.3-.173.441-.013.442-.017.885,0,1.326.01.314-.087.47-.432.471-.329,0-.455-.118-.453-.447q.014-2.059,0-4.119c0-.332.14-.45.463-.45.351,0,.429.18.422.485-.012.546,0,1.093,0,1.64Z" transform="translate(-135.798 -30.951)"/><path class="a" d="M476.085,299.2a2.338,2.338,0,0,1,1.077-.225,1,1,0,0,1,1.068.978c.054.787.021,1.579.026,2.369,0,.3-.208.312-.428.312s-.422-.026-.421-.325c0-.442,0-.883,0-1.325,0-.209.008-.42-.011-.627-.029-.317-.126-.614-.5-.655a.694.694,0,0,0-.713.458,1.748,1.748,0,0,0-.154.814c.008.418-.01.837,0,1.255.011.3-.113.418-.409.407-.253-.01-.456-.031-.455-.369q.011-2.162,0-4.323c0-.33.168-.374.436-.377s.436.051.432.377A5.207,5.207,0,0,0,476.085,299.2Z" transform="translate(-183.923 -30.83)"/><path class="a" d="M595.759,307.613a2.539,2.539,0,0,1-.481-.047.822.822,0,0,1-.564-1.33.655.655,0,0,0,.087-.741.589.589,0,0,1,.165-.642c.161-.178.122-.3-.007-.48a1.159,1.159,0,0,1-.041-1.431,1.259,1.259,0,0,1,1.429-.482,2.178,2.178,0,0,0,1.147.082c.124-.034.292-.044.312.166.016.171-.061.268-.235.263-.325-.01-.283.157-.25.4a1.161,1.161,0,0,1-1.256,1.44,2.833,2.833,0,0,1-.349-.006.41.41,0,0,0-.5.376c-.04.32.237.361.463.4a3.83,3.83,0,0,0,.556.027c.233.006.467-.008.7.018a.79.79,0,0,1,.746.535.91.91,0,0,1-.277,1.012A2.335,2.335,0,0,1,595.759,307.613Zm.11-.4a1.618,1.618,0,0,0,1.2-.33c.288-.278.237-.691-.12-.78a3.519,3.519,0,0,0-1.524-.025.526.526,0,0,0-.412.574.491.491,0,0,0,.461.518C595.63,307.195,595.794,307.2,595.869,307.208Zm1-3.566a.758.758,0,0,0-.821-.829.8.8,0,0,0-.875.8.824.824,0,0,0,.841.839A.776.776,0,0,0,596.871,303.642Z" transform="translate(-268.515 -34.263)"/><path class="a" d="M436.574,304.256c0,.466,0,.931,0,1.4a.415.415,0,0,1-.4.47,4.705,4.705,0,0,1-1.667.015,1.08,1.08,0,0,1-.891-.876,11.148,11.148,0,0,1-.076-2.436c0-.293.251-.283.465-.286s.374.064.381.3c.01.4,0,.791.012,1.187a6.221,6.221,0,0,0,.046.835.738.738,0,0,0,.746.691c.37.028.517-.083.526-.457.015-.7.01-1.4,0-2.1,0-.259.032-.455.361-.468.394-.015.481.043.493.463s0,.838,0,1.257Z" transform="translate(-154.406 -34.351)"/><path class="a" d="M462.2,302.342c.207.024.416.039.621.075.226.039.3.185.261.407s-.164.266-.343.258c-.162-.008-.323-.045-.485-.047a.894.894,0,0,0-.988.78,1.829,1.829,0,0,0-.036.276c-.064.975.409,1.406,1.4,1.259.224-.033.416-.07.479.227.067.314-.088.424-.368.444-.139.01-.277.04-.416.044a1.69,1.69,0,0,1-1.752-.749,2.181,2.181,0,0,1,.019-2.2A1.62,1.62,0,0,1,462.2,302.342Z" transform="translate(-173.375 -34.214)"/><path class="a" d="M448.313,301.313a3.409,3.409,0,0,1,1.322-1.386c.132.1.094.255.086.384-.02.3.107.432.4.414a1.983,1.983,0,0,1,.208.007.281.281,0,0,1,.3.3.269.269,0,0,1-.29.31c-.093,0-.186.01-.278.006-.227-.009-.344.086-.341.324.006.487-.01.974.01,1.46.014.331.137.606.548.545.261-.039.4.033.408.314.013.318-.2.312-.416.315-.139,0-.278.006-.417,0-.672-.025-.958-.3-.986-.988a14.258,14.258,0,0,1,0-1.46C448.9,301.491,448.755,301.311,448.313,301.313Z" transform="translate(-164.895 -32.504)"/><path class="a" d="M543.21,304.582a3.322,3.322,0,0,1-.009.672c-.052.232.216.664-.253.655-.383-.007-.2-.4-.22-.619-.028-.394-.007-.791-.008-1.187,0-.14,0-.28-.008-.419-.023-.338-.092-.654-.458-.791a.978.978,0,0,0-1.008.32,1.631,1.631,0,0,0-.357,1.1c0,.466-.007.931-.013,1.4,0,.128-.049.233-.2.229a.215.215,0,0,1-.219-.223c-.012-.209-.018-.419-.018-.628q0-1.118.007-2.236c0-.111-.008-.249.118-.306.162-.074.256.016.318.164s.155.131.272.054a2.411,2.411,0,0,1,.423-.24,1.081,1.081,0,0,1,1.572.846A6.64,6.64,0,0,1,543.21,304.582Z" transform="translate(-230.179 -34.27)"/><path class="a" d="M512.971,306.048a1.576,1.576,0,0,1-1.752-1.574,2.317,2.317,0,0,1,.231-1.284,1.453,1.453,0,0,1,1.65-.733,1.371,1.371,0,0,1,1.057,1.378c.006.3-.059.479-.421.463-.532-.024-1.067-.016-1.6,0-.368.012-.441.124-.377.479a1.028,1.028,0,0,0,.978.84,2.144,2.144,0,0,0,.9-.079c.123-.04.233-.014.264.134a.209.209,0,0,1-.171.256A2.534,2.534,0,0,1,512.971,306.048Zm-1.165-2.147a12.262,12.262,0,0,0,1.593.038c.32.009.327-.182.26-.415a.915.915,0,0,0-1.072-.677C512.076,302.914,511.829,303.24,511.805,303.9Z" transform="translate(-209.464 -34.268)"/><path class="a" d="M620.719,304.533c0,.348,0,.7,0,1.045,0,.165-.012.318-.236.355a3.4,3.4,0,0,1-1.516.032.915.915,0,0,1-.791-.849,1.059,1.059,0,0,1,.632-1.131,2.387,2.387,0,0,1,1.091-.161c.342.01.447-.153.343-.477a.662.662,0,0,0-.671-.5c-.254,0-.509.018-.763.038-.126.01-.235,0-.279-.134-.049-.155.069-.211.178-.24a2.207,2.207,0,0,1,1.435.038.9.9,0,0,1,.577.874C620.727,303.79,620.719,304.162,620.719,304.533Zm-.442.4c0-.686-.008-.7-.6-.694-.68,0-1.055.267-1.048.737.007.434.319.645.955.648C620.251,305.628,620.274,305.6,620.276,304.934Z" transform="translate(-285.259 -34.261)"/><path class="a" d="M579.658,304.142a1.621,1.621,0,0,1,.836-1.574,1.475,1.475,0,0,1,2.047.719,2.159,2.159,0,0,1-.148,2.129,1.493,1.493,0,0,1-2.508-.13A2.3,2.3,0,0,1,579.658,304.142Zm2.595.016a4.271,4.271,0,0,0-.049-.45.968.968,0,0,0-.992-.88.956.956,0,0,0-1.028.837,2.136,2.136,0,0,0,.086,1.361.926.926,0,0,0,.929.593.939.939,0,0,0,.916-.613A2.267,2.267,0,0,0,582.253,304.158Z" transform="translate(-257.97 -34.256)"/><path class="a" d="M558.436,304.162c0,1.036-.424,1.676-1.167,1.862a1.468,1.468,0,0,1-1.784-.951,2.359,2.359,0,0,1-.075-1.371,1.455,1.455,0,0,1,1.52-1.253,1.484,1.484,0,0,1,1.468,1.325A3.2,3.2,0,0,1,558.436,304.162Zm-.456.075a2.065,2.065,0,0,0-.175-.809.9.9,0,0,0-.876-.567.892.892,0,0,0-.91.509,2.042,2.042,0,0,0-.013,1.747.891.891,0,0,0,.892.54.912.912,0,0,0,.89-.545A2.014,2.014,0,0,0,557.98,304.236Z" transform="translate(-240.739 -34.291)"/><path class="a" d="M424.669,299.685c0,.534,0,1.069,0,1.6,0,.352.031.658.5.675.271.01.244.237.234.417s-.169.183-.309.2c-.9.094-1.26-.212-1.267-1.11q-.013-1.742,0-3.484c0-.418.287-.59.683-.449.179.064.159.208.16.34,0,.6,0,1.208,0,1.812Z" transform="translate(-147.535 -30.773)"/><path class="a" d="M499.419,300.567c0-.605-.012-1.211,0-1.816.01-.337-.135-.457-.455-.447a4.82,4.82,0,0,1-.7-.029.161.161,0,0,1-.126-.212.323.323,0,0,1,.123-.149.237.237,0,0,1,.134-.027q1.257,0,2.514,0c.121,0,.248.042.262.176.02.186-.13.219-.275.234a1.672,1.672,0,0,1-.209,0c-.934-.025-.8.083-.805.871-.006.955,0,1.909,0,2.864,0,.163,0,.326-.012.488a.226.226,0,0,1-.45-.006c-.006-.233-.006-.466-.007-.7,0-.419,0-.838,0-1.257Z" transform="translate(-200.205 -31.06)"/><path class="a" d="M528.194,305.645a1.207,1.207,0,0,1,.123-.007c.179.019.471-.182.491.159.013.231-.276.213-.436.233a1.655,1.655,0,0,1-1.791-.637,2.094,2.094,0,0,1-.032-2.189,1.61,1.61,0,0,1,1.74-.749,1.664,1.664,0,0,1,.4.11.131.131,0,0,1,.09.163c-.022.057-.084.137-.132.14-.184.012-.369-.005-.554-.007-.892-.009-1.324.448-1.326,1.4,0,.929.451,1.4,1.344,1.387Z" transform="translate(-220.128 -34.284)"/><path class="a" d="M572.086,299.851c0,.556,0,1.112,0,1.669s.009.546.563.74c.1.035.177.087.167.183a.224.224,0,0,1-.187.18.733.733,0,0,1-.972-.7c-.024-1.32-.009-2.642-.008-3.963,0-.171.023-.339.258-.31.2.024.171.189.172.319,0,.626,0,1.251,0,1.877Z" transform="translate(-252.293 -30.892)"/><path class="a" d="M610.416,304.5c0,.441,0,.881,0,1.322,0,.163.009.347-.24.323-.188-.018-.194-.164-.194-.308,0-.672,0-1.345,0-2.017,0-.3.116-.667-.349-.781-.089-.022-.1-.18-.019-.234a.82.82,0,0,1,.666-.047c.174.039.138.218.139.351C610.419,303.574,610.416,304.038,610.416,304.5Z" transform="translate(-279.157 -34.478)"/><path class="a" d="M610.8,298.253a.235.235,0,0,1-.254.257c-.192,0-.305-.092-.3-.293s.151-.266.331-.252S610.806,298.1,610.8,298.253Z" transform="translate(-279.648 -31.113)"/><path class="a" d="M284.082,332.234a.657.657,0,0,1-.443-.17A.532.532,0,0,1,284.082,332.234Z" transform="translate(-48.201 -55.276)"/><path class="a" d="M285.549,332.775a.782.782,0,0,1-.466-.146A.64.64,0,0,1,285.549,332.775Z" transform="translate(-49.225 -55.676)"/><path class="a" d="M264.041,264.876c-.057.057-.113.115-.169.172C263.841,264.905,263.923,264.874,264.041,264.876Z" transform="translate(-34.189 -7.666)"/><path class="a" d="M264.55,264.4l-.166.173C264.369,264.45,264.447,264.414,264.55,264.4Z" transform="translate(-34.555 -7.33)"/><path class="a" d="M265.043,263.974l-.153.16C264.89,264.033,264.958,264,265.043,263.974Z" transform="translate(-34.915 -7.027)"/></g></svg>