<svg xmlns="http://www.w3.org/2000/svg" width="140.87" height="140.21" viewBox="0 0 140.87 140.21"><defs><style>.a{fill:#ef9c4b;}</style></defs><path class="a" d="M129.919,34.226a16.765,16.765,0,1,0-16.765-16.765A16.784,16.784,0,0,0,129.919,34.226Z" transform="translate(-59.484 -0.696)"/><path class="a" d="M147.557,82.144a1.986,1.986,0,0,0-1.469-.61h-4.112a1.986,1.986,0,0,0-1.469.61,1.908,1.908,0,0,0-.251,2.247l2.2,3.314-1.029,8.681,2.026,5.391a.618.618,0,0,0,1.162,0l2.026-5.391-1.029-8.681,2.2-3.314a1.906,1.906,0,0,0-.25-2.247Z" transform="translate(-73.597 -43.192)"/><path class="a" d="M91.423,120.944h51.633a2.391,2.391,0,0,0,2.388-2.388V97.044A14.644,14.644,0,0,0,135.334,83.2l-4.715-1.447a1.7,1.7,0,0,0-2.092,1.041L117.24,113.76,105.952,82.789a1.7,1.7,0,0,0-1.592-1.116,1.679,1.679,0,0,0-.5.075l-4.679,1.435A14.657,14.657,0,0,0,89.035,97.044v21.511a2.391,2.391,0,0,0,2.388,2.388Z" transform="translate(-46.805 -43.265)"/><path class="a" d="M16.764,52.293A16.765,16.765,0,1,0,0,35.528,16.784,16.784,0,0,0,16.764,52.293Z" transform="translate(0 -10.194)"/><path class="a" d="M47.054,140.559H33.7V114.185a15.184,15.184,0,1,0-30.368,0v35.827A14.578,14.578,0,0,0,17.911,164.59H35.236v23.874a4.12,4.12,0,0,0,4.12,4.12h16a4.12,4.12,0,0,0,4.12-4.12V152.978a12.419,12.419,0,0,0-12.419-12.419Z" transform="translate(-1.752 -52.373)"/><path class="a" d="M243.074,52.293a16.765,16.765,0,1,0-16.765-16.765A16.783,16.783,0,0,0,243.074,52.293Z" transform="translate(-118.968 -10.194)"/><path class="a" d="M216.262,99a15.184,15.184,0,0,0-15.184,15.184v26.374H187.725a12.419,12.419,0,0,0-12.419,12.419v35.485a4.12,4.12,0,0,0,4.12,4.12h16a4.12,4.12,0,0,0,4.12-4.12V164.589h17.325a14.578,14.578,0,0,0,14.578-14.578V114.184A15.184,15.184,0,0,0,216.262,99Z" transform="translate(-92.157 -52.373)"/></svg>