<svg xmlns="http://www.w3.org/2000/svg" width="136.391" height="139" viewBox="0 0 136.391 139"><defs><style>.a{fill:#ef9c4b;}</style></defs><path class="a" d="M136.673,41.464c-3.377-12.253-10.982-22.289-22.361-28.152a7.068,7.068,0,0,0-2.38-.729,17.84,17.84,0,0,0-6.857-.741c-6.363.545-11.4,3.551-13.553,7.731A14.255,14.255,0,0,0,90.185,21.6c-4.249,7.515-12.814,14.137-20.311,18.907a7.471,7.471,0,0,0-1.433-.412c-9-1.652-16.78-5.543-21.77-13.426a6.928,6.928,0,0,0-2.5-2.39,17.98,17.98,0,0,0-11.734-5.164,17.854,17.854,0,0,0-6.85.738,7.008,7.008,0,0,0-2.375.729C11.826,26.446,4.223,36.484.849,48.737-1.508,57.289,11.5,62.144,13.871,53.549a41.134,41.134,0,0,1,3.22-8.235q-.208,10.768-.415,21.536c0,.117.025.228.025.343l-.076,4.025L15.78,91.3l-1.816,25.127a3.967,3.967,0,0,0,.395,1.773l-.009.085c-.051,2.682,2.592,4.883,5.909,4.929s6.038-2.1,6.093-4.773L29.892,85.4l.614-4.9,1.463.023,1.708,19.6,1.166,17.012a4.051,4.051,0,0,0,.545,2.061c.568,2.16,2.913,3.8,5.766,3.837,3.314.041,6.038-2.093,6.093-4.771L46.392,93.1l-.067-20.09.062-3.333c.007-.106.03-.2.032-.311l.443-23.158A46.628,46.628,0,0,0,64.75,53.438a6.991,6.991,0,0,0,4.916-.833,6.965,6.965,0,0,0,7.252-.2,122.153,122.153,0,0,0,13.807-9.661q.187,9.675.372,19.349c0,.1.025.2.032.308l.062,3.344-.065,20.08-.852,25.162c.051,2.677,2.777,4.819,6.091,4.771,2.853-.035,5.2-1.677,5.77-3.841a4.1,4.1,0,0,0,.54-2.061l1.168-17.012,1.706-19.6,1.468-.018.616,4.9,3.536,33.033c.053,2.675,2.781,4.812,6.093,4.773s5.962-2.252,5.909-4.927l-.009-.083a3.975,3.975,0,0,0,.4-1.776l-1.816-25.132L120.9,63.941l-.076-4.064c0-.1.025-.2.023-.306l-.415-21.541a41.34,41.34,0,0,1,3.222,8.242C126.018,54.871,139.027,50.016,136.673,41.464Z" transform="translate(-0.565 15.788)"/><circle class="a" cx="11.879" cy="11.879" r="11.879" transform="translate(92.725)"/><circle class="a" cx="11.879" cy="11.879" r="11.879" transform="translate(19.91 7.401)"/></svg>