<svg xmlns="http://www.w3.org/2000/svg" width="124.889" height="148.701" viewBox="0 0 124.889 148.701"><defs><style>.a{fill:#ef9c4b;}</style></defs><path class="a" d="M150.763,272.593c-7.381.456-17.092,7.832-26.457,12.074-11.48,5.2-29.349,1.019-29.351,1.019,2.757-1.294,13.958-3.962,16.214-4.951,11.991-5.278,10.974-16.27,5.263-16.177-7.545.12-11.975,1.972-27.029,4.025-11.411,1.551-24.907.984-31.381,3.456-9.138,3.49-23.855,26.975-23.855,26.975l22.756,22.053s14.088-13.875,20.942-13.875c15.62,0,16.253-.209,30.754-1,6.167-.33,7.454-.584,10.986-1.773,18.8-6.357,38.985-23.285,39.356-25.321C159.82,274.384,154.662,272.357,150.763,272.593Z" transform="translate(-34.167 -172.366)"/><path class="a" d="M163.98,22.1a40.282,40.282,0,0,0,8.485-7.159c2.1-2.238,4.881-5.109,4.581-8.427-.211-2.335-2.172-3.493-4.316-3.759a14.951,14.951,0,0,0-2.079-.1c-.468.007-1.414-.118-1.78.238-.768.747-1.532,1.492-2.3,2.244-.164-.51-.324-1.021-.486-1.538a.56.56,0,0,0-.666-.379,18.518,18.518,0,0,1-6.321.358c-2.616-.483-5.191-1.215-7.775-1.82a.552.552,0,0,0-.668.378c-.209.664-.421,1.328-.629,1.991-.913-.9-1.831-1.8-2.753-2.694-.219-.209-.52-.666-.85-.721Q145.509.547,144.582.4q-1.446-.225-2.9-.338c-2.137-.166-6-.2-6.116,2.755-.112,4.734,4.065,8.485,7.06,11.626,1.854,1.946,4.078,4.2,5.325,6.741-13.237,4.279-24.524,20.35-24.524,37.64,0,20.2,9.586,25.736,31.343,25.736S186.1,79.023,186.1,58.824C186.1,42.589,176.152,27.432,163.98,22.1Zm-.01,39.7a8.634,8.634,0,0,1-3.158,2.809,11.87,11.87,0,0,1-2.08.829c-.1.034-1.035.288-1.035.288v2.61a3.609,3.609,0,0,1-1.32,3.222,2.942,2.942,0,0,1-3.83-.588,4.622,4.622,0,0,1-.683-2.928V65.719s-.6-.181-.723-.213c-.418-.114-.832-.248-1.242-.388-.243-.086-.481-.176-.721-.27a4.824,4.824,0,0,1-.539.313,3.119,3.119,0,0,1-1.042.317,2.825,2.825,0,0,1-3.058-2.095,10.618,10.618,0,0,1-.167-2.719,10.641,10.641,0,0,1,.167-2.732,2.834,2.834,0,0,1,3.225-2.075,2.64,2.64,0,0,1,1.756,1,3.36,3.36,0,0,1,.506.976,2.925,2.925,0,0,0,.4.934,3.772,3.772,0,0,0,1.816,1.009,8.353,8.353,0,0,0,2.565.4,5.8,5.8,0,0,0,4.122-1.354,1.432,1.432,0,0,0-.518-2.319,17.022,17.022,0,0,0-2.559-.624c-.813-.154-1.626-.3-2.435-.453-2.227-.408-4.545-.961-6.181-2.642a6.74,6.74,0,0,1-.945-8.109,7.974,7.974,0,0,1,3.227-2.956,9.58,9.58,0,0,1,2.155-.771c.216-.054.188-.034.188-.228v-.5c0-.8-.046-1.617.025-2.411a2.961,2.961,0,0,1,2.372-2.918,2.828,2.828,0,0,1,3.238,1.974,9.5,9.5,0,0,1,.2,2.746v1.265a3.54,3.54,0,0,0,.421.088c.21.041.421.1.627.153.17.045.451.2.59.091a3.033,3.033,0,0,1,4.14.273c.758.91.739,2.359.739,3.477a7.521,7.521,0,0,1-.345,3.09,2.849,2.849,0,0,1-3.59,1.429,2.771,2.771,0,0,1-1.537-1.377,3.168,3.168,0,0,1-.223-.581c-.025-.091-.048-.183-.068-.275a2.269,2.269,0,0,0-.214-.124,5.184,5.184,0,0,0-.93-.4,7.378,7.378,0,0,0-2.338-.3,7.75,7.75,0,0,0-2.163.284c-.872.269-2.375,1.324-1.188,2.179a6.552,6.552,0,0,0,2.561.823c.74.141,1.479.289,2.219.431,2.2.433,4.594.882,6.353,2.375-1.2-1.014,1.6,1.341,0,0A7.115,7.115,0,0,1,163.97,61.8Z" transform="translate(-92.318 0)"/></svg>