<svg xmlns="http://www.w3.org/2000/svg" width="139.828" height="128.495" viewBox="0 0 139.828 128.495"><defs><style>.a{fill:#ef9c4b;}</style></defs><path class="a" d="M105.108,90.571a3.4,3.4,0,0,0-5.486,0l-18.079,24.67a3.4,3.4,0,0,0,2.743,5.41h7.433v57.3a3.4,3.4,0,0,0,3.4,3.4H109.61a3.4,3.4,0,0,0,3.4-3.4v-57.3h7.433a3.4,3.4,0,0,0,2.743-5.41Z" transform="translate(-42.804 -52.861)"/><path class="a" d="M24.221,133.423a3.4,3.4,0,0,0-5.486,0L.657,158.094A3.4,3.4,0,0,0,3.4,163.5h7.433v37.128a3.4,3.4,0,0,0,3.4,3.4H28.724a3.4,3.4,0,0,0,3.4-3.4V163.5h7.433a3.4,3.4,0,0,0,2.743-5.41l-18.079-24.67Z" transform="translate(0.001 -75.538)"/><path class="a" d="M225.854,42.026a15,15,0,1,0-15-15A15.012,15.012,0,0,0,225.854,42.026Z" transform="translate(-111.586 -12.036)"/><path class="a" d="M230.45,89.62l-.025-.008-4.28-1.313a1.329,1.329,0,0,0-1.639.815l-9,24.692a1.625,1.625,0,0,1-3.053,0l-9-24.692a1.329,1.329,0,0,0-1.248-.875c-.129,0-4.666,1.371-4.666,1.371a13.286,13.286,0,0,0-9.12,12.621v26.12a1.326,1.326,0,0,0,.219.73l9.39,14.29v36.157a1.329,1.329,0,0,0,1.329,1.329H228.6a1.329,1.329,0,0,0,1.329-1.329V143.371l9.39-14.29a1.331,1.331,0,0,0,.218-.73V102.162A13.2,13.2,0,0,0,230.45,89.62Z" transform="translate(-99.712 -52.363)"/><path class="a" d="M241.593,85.289a2.2,2.2,0,0,0-1.63-.678H235.4a2.2,2.2,0,0,0-1.63.678,2.116,2.116,0,0,0-.279,2.493l2.439,3.676-1.142,9.631,2.248,5.98a.686.686,0,0,0,1.289,0l2.248-5.98-1.142-9.631,2.439-3.676A2.115,2.115,0,0,0,241.593,85.289Z" transform="translate(-123.414 -50.443)"/></svg>